<?xml version="1.0" encoding="UTF-8" standalone="no"?>
<!DOCTYPE svg PUBLIC "-//W3C//DTD SVG 1.1//EN"
 "http://www.w3.org/Graphics/SVG/1.1/DTD/svg11.dtd">
<!-- Generated by graphviz version 2.40.1 (20161225.0304)
 -->
<!-- Title: G Pages: 1 -->
<svg width="1086pt" height="1822pt"
 viewBox="0.00 0.00 1086.28 1822.00" xmlns="http://www.w3.org/2000/svg" xmlns:xlink="http://www.w3.org/1999/xlink">
<g id="graph0" class="graph" transform="scale(1 1) rotate(0) translate(4 1818)">
<title>G</title>
<polygon fill="#ffffff" stroke="transparent" points="-4,4 -4,-1818 1082.278,-1818 1082.278,4 -4,4"/>
<g id="clust1" class="cluster">
<title>cluster_Global</title>
<path fill="none" stroke="#c0c0c0" d="M20,-260C20,-260 1058.278,-260 1058.278,-260 1064.278,-260 1070.278,-266 1070.278,-272 1070.278,-272 1070.278,-1794 1070.278,-1794 1070.278,-1800 1064.278,-1806 1058.278,-1806 1058.278,-1806 20,-1806 20,-1806 14,-1806 8,-1800 8,-1794 8,-1794 8,-272 8,-272 8,-266 14,-260 20,-260"/>
<text text-anchor="middle" x="539.139" y="-1793.2" font-family="Times,serif" font-size="11.00" fill="#c0c0c0">Global</text>
</g>
<g id="clust2" class="cluster">
<title>cluster_\PhpAmqpLib</title>
<path fill="none" stroke="#c0c0c0" d="M28,-268C28,-268 1050.278,-268 1050.278,-268 1056.278,-268 1062.278,-274 1062.278,-280 1062.278,-280 1062.278,-1766 1062.278,-1766 1062.278,-1772 1056.278,-1778 1050.278,-1778 1050.278,-1778 28,-1778 28,-1778 22,-1778 16,-1772 16,-1766 16,-1766 16,-280 16,-280 16,-274 22,-268 28,-268"/>
<text text-anchor="middle" x="539.139" y="-1765.2" font-family="Times,serif" font-size="11.00" fill="#c0c0c0">PhpAmqpLib</text>
</g>
<g id="clust3" class="cluster">
<title>cluster_\PhpAmqpLib\Message</title>
<path fill="none" stroke="#c0c0c0" d="M891.778,-1650C891.778,-1650 974.778,-1650 974.778,-1650 980.778,-1650 986.778,-1656 986.778,-1662 986.778,-1662 986.778,-1710 986.778,-1710 986.778,-1716 980.778,-1722 974.778,-1722 974.778,-1722 891.778,-1722 891.778,-1722 885.778,-1722 879.778,-1716 879.778,-1710 879.778,-1710 879.778,-1662 879.778,-1662 879.778,-1656 885.778,-1650 891.778,-1650"/>
<text text-anchor="middle" x="933.278" y="-1709.2" font-family="Times,serif" font-size="11.00" fill="#c0c0c0">Message</text>
</g>
<g id="clust4" class="cluster">
<title>cluster_\PhpAmqpLib\Helper</title>
<path fill="none" stroke="#c0c0c0" d="M880.278,-1164C880.278,-1164 986.278,-1164 986.278,-1164 992.278,-1164 998.278,-1170 998.278,-1176 998.278,-1176 998.278,-1630 998.278,-1630 998.278,-1636 992.278,-1642 986.278,-1642 986.278,-1642 880.278,-1642 880.278,-1642 874.278,-1642 868.278,-1636 868.278,-1630 868.278,-1630 868.278,-1176 868.278,-1176 868.278,-1170 874.278,-1164 880.278,-1164"/>
<text text-anchor="middle" x="933.278" y="-1629.2" font-family="Times,serif" font-size="11.00" fill="#c0c0c0">Helper</text>
</g>
<g id="clust5" class="cluster">
<title>cluster_\PhpAmqpLib\Helper\Protocol</title>
<path fill="none" stroke="#c0c0c0" d="M888.278,-1272C888.278,-1272 978.278,-1272 978.278,-1272 984.278,-1272 990.278,-1278 990.278,-1284 990.278,-1284 990.278,-1602 990.278,-1602 990.278,-1608 984.278,-1614 978.278,-1614 978.278,-1614 888.278,-1614 888.278,-1614 882.278,-1614 876.278,-1608 876.278,-1602 876.278,-1602 876.278,-1284 876.278,-1284 876.278,-1278 882.278,-1272 888.278,-1272"/>
<text text-anchor="middle" x="933.278" y="-1601.2" font-family="Times,serif" font-size="11.00" fill="#c0c0c0">Protocol</text>
</g>
<g id="clust6" class="cluster">
<title>cluster_\PhpAmqpLib\Wire</title>
<path fill="none" stroke="#c0c0c0" d="M267.639,-1164C267.639,-1164 696.778,-1164 696.778,-1164 702.778,-1164 708.778,-1170 708.778,-1176 708.778,-1176 708.778,-1738 708.778,-1738 708.778,-1744 702.778,-1750 696.778,-1750 696.778,-1750 267.639,-1750 267.639,-1750 261.639,-1750 255.639,-1744 255.639,-1738 255.639,-1738 255.639,-1176 255.639,-1176 255.639,-1170 261.639,-1164 267.639,-1164"/>
<text text-anchor="middle" x="482.2085" y="-1737.2" font-family="Times,serif" font-size="11.00" fill="#c0c0c0">Wire</text>
</g>
<g id="clust7" class="cluster">
<title>cluster_\PhpAmqpLib\Wire\IO</title>
<path fill="none" stroke="#c0c0c0" d="M308.139,-1596C308.139,-1596 676.778,-1596 676.778,-1596 682.778,-1596 688.778,-1602 688.778,-1608 688.778,-1608 688.778,-1710 688.778,-1710 688.778,-1716 682.778,-1722 676.778,-1722 676.778,-1722 308.139,-1722 308.139,-1722 302.139,-1722 296.139,-1716 296.139,-1710 296.139,-1710 296.139,-1608 296.139,-1608 296.139,-1602 302.139,-1596 308.139,-1596"/>
<text text-anchor="middle" x="492.4585" y="-1709.2" font-family="Times,serif" font-size="11.00" fill="#c0c0c0">IO</text>
</g>
<g id="clust8" class="cluster">
<title>cluster_\PhpAmqpLib\Connection</title>
<path fill="none" stroke="#c0c0c0" d="M281.139,-922C281.139,-922 1018.778,-922 1018.778,-922 1024.778,-922 1030.778,-928 1030.778,-934 1030.778,-934 1030.778,-1144 1030.778,-1144 1030.778,-1150 1024.778,-1156 1018.778,-1156 1018.778,-1156 281.139,-1156 281.139,-1156 275.139,-1156 269.139,-1150 269.139,-1144 269.139,-1144 269.139,-934 269.139,-934 269.139,-928 275.139,-922 281.139,-922"/>
<text text-anchor="middle" x="649.9585" y="-1143.2" font-family="Times,serif" font-size="11.00" fill="#c0c0c0">Connection</text>
</g>
<g id="clust9" class="cluster">
<title>cluster_\PhpAmqpLib\Exception</title>
<path fill="none" stroke="#c0c0c0" d="M267.639,-356C267.639,-356 1042.278,-356 1042.278,-356 1048.278,-356 1054.278,-362 1054.278,-368 1054.278,-368 1054.278,-902 1054.278,-902 1054.278,-908 1048.278,-914 1042.278,-914 1042.278,-914 267.639,-914 267.639,-914 261.639,-914 255.639,-908 255.639,-902 255.639,-902 255.639,-368 255.639,-368 255.639,-362 261.639,-356 267.639,-356"/>
<text text-anchor="middle" x="654.9585" y="-901.2" font-family="Times,serif" font-size="11.00" fill="#c0c0c0">Exception</text>
</g>
<g id="clust10" class="cluster">
<title>cluster_\PhpAmqpLib\Channel</title>
<path fill="none" stroke="#c0c0c0" d="M36,-276C36,-276 387.639,-276 387.639,-276 393.639,-276 399.639,-282 399.639,-288 399.639,-288 399.639,-336 399.639,-336 399.639,-342 393.639,-348 387.639,-348 387.639,-348 36,-348 36,-348 30,-348 24,-342 24,-336 24,-336 24,-288 24,-288 24,-282 30,-276 36,-276"/>
<text text-anchor="middle" x="211.8195" y="-335.2" font-family="Times,serif" font-size="11.00" fill="#c0c0c0">Channel</text>
</g>
<!-- \\PhpAmqpLib\\Message\\AMQPMessage -->
<g id="node1" class="node">
<title>\\PhpAmqpLib\\Message\\AMQPMessage</title>
<polygon fill="none" stroke="#000000" points="978.778,-1694 887.778,-1694 887.778,-1658 978.778,-1658 978.778,-1694"/>
<text text-anchor="middle" x="933.278" y="-1673.2" font-family="Courier,monospace" font-size="11.00" fill="#000000">AMQPMessage</text>
</g>
<!-- \\PhpAmqpLib\\Wire\\GenericContent -->
<g id="node21" class="node">
<title>\\PhpAmqpLib\\Wire\\GenericContent</title>
<polygon fill="none" stroke="#000000" points="700.778,-1262 589.778,-1262 589.778,-1226 700.778,-1226 700.778,-1262"/>
<text text-anchor="start" x="611.278" y="-1247.2" font-family="Courier,monospace" font-size="11.00" fill="#000000">«abstract»</text>
<text text-anchor="start" x="597.778" y="-1235.2" font-family="Courier,monospace" font-size="11.00" fill="#000000">GenericContent</text>
</g>
<!-- \\PhpAmqpLib\\Message\\AMQPMessage&#45;&gt;\\PhpAmqpLib\\Wire\\GenericContent -->
<g id="edge1" class="edge">
<title>\\PhpAmqpLib\\Message\\AMQPMessage&#45;&gt;\\PhpAmqpLib\\Wire\\GenericContent</title>
<path fill="none" stroke="#000000" d="M887.6232,-1663.1035C864.0864,-1654.1611 836.9056,-1639.8459 820.278,-1618 724.8831,-1492.6672 856.732,-1385.2201 748.278,-1271 738.246,-1260.4347 724.6287,-1253.8156 710.5846,-1249.7144"/>
<polygon fill="none" stroke="#000000" points="711.3841,-1246.3066 700.8323,-1247.2598 709.6755,-1253.0949 711.3841,-1246.3066"/>
</g>
<!-- \\PhpAmqpLib\\Helper\\Protocol\\Protocol091 -->
<g id="node2" class="node">
<title>\\PhpAmqpLib\\Helper\\Protocol\\Protocol091</title>
<polygon fill="none" stroke="#000000" points="978.778,-1586 887.778,-1586 887.778,-1550 978.778,-1550 978.778,-1586"/>
<text text-anchor="middle" x="933.278" y="-1565.2" font-family="Courier,monospace" font-size="11.00" fill="#000000">Protocol091</text>
</g>
<!-- \\PhpAmqpLib\\Helper\\Protocol\\Wait091 -->
<g id="node3" class="node">
<title>\\PhpAmqpLib\\Helper\\Protocol\\Wait091</title>
<polygon fill="none" stroke="#000000" points="965.278,-1532 901.278,-1532 901.278,-1496 965.278,-1496 965.278,-1532"/>
<text text-anchor="middle" x="933.278" y="-1511.2" font-family="Courier,monospace" font-size="11.00" fill="#000000">Wait091</text>
</g>
<!-- \\PhpAmqpLib\\Helper\\Protocol\\Protocol080 -->
<g id="node4" class="node">
<title>\\PhpAmqpLib\\Helper\\Protocol\\Protocol080</title>
<polygon fill="none" stroke="#000000" points="978.778,-1478 887.778,-1478 887.778,-1442 978.778,-1442 978.778,-1478"/>
<text text-anchor="middle" x="933.278" y="-1457.2" font-family="Courier,monospace" font-size="11.00" fill="#000000">Protocol080</text>
</g>
<!-- \\PhpAmqpLib\\Helper\\Protocol\\MethodMap091 -->
<g id="node5" class="node">
<title>\\PhpAmqpLib\\Helper\\Protocol\\MethodMap091</title>
<polygon fill="none" stroke="#000000" points="982.278,-1424 884.278,-1424 884.278,-1388 982.278,-1388 982.278,-1424"/>
<text text-anchor="middle" x="933.278" y="-1403.2" font-family="Courier,monospace" font-size="11.00" fill="#000000">MethodMap091</text>
</g>
<!-- \\PhpAmqpLib\\Helper\\Protocol\\Wait080 -->
<g id="node6" class="node">
<title>\\PhpAmqpLib\\Helper\\Protocol\\Wait080</title>
<polygon fill="none" stroke="#000000" points="965.278,-1370 901.278,-1370 901.278,-1334 965.278,-1334 965.278,-1370"/>
<text text-anchor="middle" x="933.278" y="-1349.2" font-family="Courier,monospace" font-size="11.00" fill="#000000">Wait080</text>
</g>
<!-- \\PhpAmqpLib\\Helper\\Protocol\\MethodMap080 -->
<g id="node7" class="node">
<title>\\PhpAmqpLib\\Helper\\Protocol\\MethodMap080</title>
<polygon fill="none" stroke="#000000" points="982.278,-1316 884.278,-1316 884.278,-1280 982.278,-1280 982.278,-1316"/>
<text text-anchor="middle" x="933.278" y="-1295.2" font-family="Courier,monospace" font-size="11.00" fill="#000000">MethodMap080</text>
</g>
<!-- \\PhpAmqpLib\\Helper\\DebugHelper -->
<g id="node8" class="node">
<title>\\PhpAmqpLib\\Helper\\DebugHelper</title>
<polygon fill="none" stroke="#000000" points="978.778,-1262 887.778,-1262 887.778,-1226 978.778,-1226 978.778,-1262"/>
<text text-anchor="middle" x="933.278" y="-1241.2" font-family="Courier,monospace" font-size="11.00" fill="#000000">DebugHelper</text>
</g>
<!-- \\PhpAmqpLib\\Helper\\MiscHelper -->
<g id="node9" class="node">
<title>\\PhpAmqpLib\\Helper\\MiscHelper</title>
<polygon fill="none" stroke="#000000" points="975.278,-1208 891.278,-1208 891.278,-1172 975.278,-1172 975.278,-1208"/>
<text text-anchor="middle" x="933.278" y="-1187.2" font-family="Courier,monospace" font-size="11.00" fill="#000000">MiscHelper</text>
</g>
<!-- \\PhpAmqpLib\\Wire\\IO\\AbstractIO -->
<g id="node10" class="node">
<title>\\PhpAmqpLib\\Wire\\IO\\AbstractIO</title>
<polygon fill="none" stroke="#000000" points="388.139,-1667 304.139,-1667 304.139,-1631 388.139,-1631 388.139,-1667"/>
<text text-anchor="start" x="312.139" y="-1652.2" font-family="Courier,monospace" font-size="11.00" fill="#000000">«abstract»</text>
<text text-anchor="start" x="312.139" y="-1640.2" font-family="Courier,monospace" font-size="11.00" fill="#000000">AbstractIO</text>
</g>
<!-- \\PhpAmqpLib\\Wire\\IO\\StreamIO -->
<g id="node11" class="node">
<title>\\PhpAmqpLib\\Wire\\IO\\StreamIO</title>
<polygon fill="none" stroke="#000000" points="680.778,-1694 609.778,-1694 609.778,-1658 680.778,-1658 680.778,-1694"/>
<text text-anchor="middle" x="645.278" y="-1673.2" font-family="Courier,monospace" font-size="11.00" fill="#000000">StreamIO</text>
</g>
<!-- \\PhpAmqpLib\\Wire\\IO\\StreamIO&#45;&gt;\\PhpAmqpLib\\Wire\\IO\\AbstractIO -->
<g id="edge2" class="edge">
<title>\\PhpAmqpLib\\Wire\\IO\\StreamIO&#45;&gt;\\PhpAmqpLib\\Wire\\IO\\AbstractIO</title>
<path fill="none" stroke="#000000" d="M609.4919,-1672.77C557.0094,-1668.033 458.8491,-1659.1731 398.3247,-1653.7102"/>
<polygon fill="none" stroke="#000000" points="398.4886,-1650.2109 388.2144,-1652.7977 397.8593,-1657.1825 398.4886,-1650.2109"/>
</g>
<!-- \\PhpAmqpLib\\Wire\\IO\\SocketIO -->
<g id="node12" class="node">
<title>\\PhpAmqpLib\\Wire\\IO\\SocketIO</title>
<polygon fill="none" stroke="#000000" points="680.778,-1640 609.778,-1640 609.778,-1604 680.778,-1604 680.778,-1640"/>
<text text-anchor="middle" x="645.278" y="-1619.2" font-family="Courier,monospace" font-size="11.00" fill="#000000">SocketIO</text>
</g>
<!-- \\PhpAmqpLib\\Wire\\IO\\SocketIO&#45;&gt;\\PhpAmqpLib\\Wire\\IO\\AbstractIO -->
<g id="edge3" class="edge">
<title>\\PhpAmqpLib\\Wire\\IO\\SocketIO&#45;&gt;\\PhpAmqpLib\\Wire\\IO\\AbstractIO</title>
<path fill="none" stroke="#000000" d="M609.4919,-1625.23C557.0094,-1629.967 458.8491,-1638.8269 398.3247,-1644.2898"/>
<polygon fill="none" stroke="#000000" points="397.8593,-1640.8175 388.2144,-1645.2023 398.4886,-1647.7891 397.8593,-1640.8175"/>
</g>
<!-- \\PhpAmqpLib\\Wire\\AMQPDecimal -->
<g id="node13" class="node">
<title>\\PhpAmqpLib\\Wire\\AMQPDecimal</title>
<polygon fill="none" stroke="#000000" points="690.778,-1586 599.778,-1586 599.778,-1550 690.778,-1550 690.778,-1586"/>
<text text-anchor="middle" x="645.278" y="-1565.2" font-family="Courier,monospace" font-size="11.00" fill="#000000">AMQPDecimal</text>
</g>
<!-- \\PhpAmqpLib\\Wire\\AMQPArray -->
<g id="node14" class="node">
<title>\\PhpAmqpLib\\Wire\\AMQPArray</title>
<polygon fill="none" stroke="#000000" points="683.778,-1532 606.778,-1532 606.778,-1496 683.778,-1496 683.778,-1532"/>
<text text-anchor="middle" x="645.278" y="-1511.2" font-family="Courier,monospace" font-size="11.00" fill="#000000">AMQPArray</text>
</g>
<!-- \\PhpAmqpLib\\Wire\\AMQPAbstractCollection -->
<g id="node16" class="node">
<title>\\PhpAmqpLib\\Wire\\AMQPAbstractCollection</title>
<polygon fill="none" stroke="#000000" points="428.639,-1424 263.639,-1424 263.639,-1388 428.639,-1388 428.639,-1424"/>
<text text-anchor="start" x="312.139" y="-1409.2" font-family="Courier,monospace" font-size="11.00" fill="#000000">«abstract»</text>
<text text-anchor="start" x="271.639" y="-1397.2" font-family="Courier,monospace" font-size="11.00" fill="#000000">AMQPAbstractCollection</text>
</g>
<!-- \\PhpAmqpLib\\Wire\\AMQPArray&#45;&gt;\\PhpAmqpLib\\Wire\\AMQPAbstractCollection -->
<g id="edge4" class="edge">
<title>\\PhpAmqpLib\\Wire\\AMQPArray&#45;&gt;\\PhpAmqpLib\\Wire\\AMQPAbstractCollection</title>
<path fill="none" stroke="#000000" d="M606.7611,-1505.2156C587.2532,-1500.4364 563.3071,-1494.0624 542.278,-1487 491.0864,-1469.8079 434.2147,-1445.7484 394.95,-1428.3218"/>
<polygon fill="none" stroke="#000000" points="395.9193,-1424.9217 385.361,-1424.0424 393.0665,-1431.314 395.9193,-1424.9217"/>
</g>
<!-- \\PhpAmqpLib\\Wire\\Constants091 -->
<g id="node15" class="node">
<title>\\PhpAmqpLib\\Wire\\Constants091</title>
<polygon fill="none" stroke="#000000" points="694.278,-1478 596.278,-1478 596.278,-1442 694.278,-1442 694.278,-1478"/>
<text text-anchor="middle" x="645.278" y="-1457.2" font-family="Courier,monospace" font-size="11.00" fill="#000000">Constants091</text>
</g>
<!-- \\Iterator -->
<g id="node48" class="node">
<title>\\Iterator</title>
<ellipse fill="none" stroke="#000000" cx="91" cy="-234" rx="50.0912" ry="18"/>
<text text-anchor="middle" x="91" y="-230.3" font-family="Times,serif" font-size="14.00" fill="#c0c0c0">\Iterator</text>
</g>
<!-- \\PhpAmqpLib\\Wire\\AMQPAbstractCollection&#45;&gt;\\Iterator -->
<g id="edge5" class="edge">
<title>\\PhpAmqpLib\\Wire\\AMQPAbstractCollection&#45;&gt;\\Iterator</title>
<path fill="none" stroke="#000000" stroke-dasharray="1,5" d="M313.4961,-1387.87C283.8975,-1369.4643 241.9449,-1338.011 222,-1298 120.0325,-1093.4453 266.3982,-468.7015 150,-272 145.6295,-264.6143 139.1975,-258.4161 132.1691,-253.3111"/>
<polygon fill="none" stroke="#000000" points="134.0217,-250.3408 123.7324,-247.8147 130.2007,-256.2059 134.0217,-250.3408"/>
</g>
<!-- \\PhpAmqpLib\\Wire\\AMQPWriter -->
<g id="node17" class="node">
<title>\\PhpAmqpLib\\Wire\\AMQPWriter</title>
<polygon fill="none" stroke="#000000" points="687.278,-1370 603.278,-1370 603.278,-1334 687.278,-1334 687.278,-1370"/>
<text text-anchor="middle" x="645.278" y="-1349.2" font-family="Courier,monospace" font-size="11.00" fill="#000000">AMQPWriter</text>
</g>
<!-- \\PhpAmqpLib\\Wire\\AbstractClient -->
<g id="node18" class="node">
<title>\\PhpAmqpLib\\Wire\\AbstractClient</title>
<polygon fill="none" stroke="#000000" points="401.639,-1289 290.639,-1289 290.639,-1253 401.639,-1253 401.639,-1289"/>
<text text-anchor="middle" x="346.139" y="-1268.2" font-family="Courier,monospace" font-size="11.00" fill="#000000">AbstractClient</text>
</g>
<!-- \\PhpAmqpLib\\Wire\\AMQPWriter&#45;&gt;\\PhpAmqpLib\\Wire\\AbstractClient -->
<g id="edge6" class="edge">
<title>\\PhpAmqpLib\\Wire\\AMQPWriter&#45;&gt;\\PhpAmqpLib\\Wire\\AbstractClient</title>
<path fill="none" stroke="#000000" d="M603.1518,-1341.0821C584.4873,-1336.2126 562.2731,-1330.373 542.278,-1325 498.7558,-1313.305 449.8921,-1299.8529 411.8237,-1289.3008"/>
<polygon fill="none" stroke="#000000" points="412.46,-1285.8452 401.8883,-1286.5447 410.5889,-1292.5905 412.46,-1285.8452"/>
</g>
<!-- \\PhpAmqpLib\\Wire\\AMQPTable -->
<g id="node19" class="node">
<title>\\PhpAmqpLib\\Wire\\AMQPTable</title>
<polygon fill="none" stroke="#000000" points="683.778,-1424 606.778,-1424 606.778,-1388 683.778,-1388 683.778,-1424"/>
<text text-anchor="middle" x="645.278" y="-1403.2" font-family="Courier,monospace" font-size="11.00" fill="#000000">AMQPTable</text>
</g>
<!-- \\PhpAmqpLib\\Wire\\AMQPTable&#45;&gt;\\PhpAmqpLib\\Wire\\AMQPAbstractCollection -->
<g id="edge7" class="edge">
<title>\\PhpAmqpLib\\Wire\\AMQPTable&#45;&gt;\\PhpAmqpLib\\Wire\\AMQPAbstractCollection</title>
<path fill="none" stroke="#000000" d="M606.4774,-1406C564.2733,-1406 495.2995,-1406 438.9476,-1406"/>
<polygon fill="none" stroke="#000000" points="438.9423,-1402.5001 428.9423,-1406 438.9422,-1409.5001 438.9423,-1402.5001"/>
</g>
<!-- \\PhpAmqpLib\\Wire\\Constants080 -->
<g id="node20" class="node">
<title>\\PhpAmqpLib\\Wire\\Constants080</title>
<polygon fill="none" stroke="#000000" points="694.278,-1316 596.278,-1316 596.278,-1280 694.278,-1280 694.278,-1316"/>
<text text-anchor="middle" x="645.278" y="-1295.2" font-family="Courier,monospace" font-size="11.00" fill="#000000">Constants080</text>
</g>
<!-- \\PhpAmqpLib\\Wire\\AMQPReader -->
<g id="node22" class="node">
<title>\\PhpAmqpLib\\Wire\\AMQPReader</title>
<polygon fill="none" stroke="#000000" points="687.278,-1208 603.278,-1208 603.278,-1172 687.278,-1172 687.278,-1208"/>
<text text-anchor="middle" x="645.278" y="-1187.2" font-family="Courier,monospace" font-size="11.00" fill="#000000">AMQPReader</text>
</g>
<!-- \\PhpAmqpLib\\Wire\\AMQPReader&#45;&gt;\\PhpAmqpLib\\Wire\\AbstractClient -->
<g id="edge8" class="edge">
<title>\\PhpAmqpLib\\Wire\\AMQPReader&#45;&gt;\\PhpAmqpLib\\Wire\\AbstractClient</title>
<path fill="none" stroke="#000000" d="M603.1518,-1200.9179C584.4873,-1205.7874 562.2731,-1211.627 542.278,-1217 498.7558,-1228.695 449.8921,-1242.1471 411.8237,-1252.6992"/>
<polygon fill="none" stroke="#000000" points="410.5889,-1249.4095 401.8883,-1255.4553 412.46,-1256.1548 410.5889,-1249.4095"/>
</g>
<!-- \\PhpAmqpLib\\Connection\\AMQPSocketConnection -->
<g id="node23" class="node">
<title>\\PhpAmqpLib\\Connection\\AMQPSocketConnection</title>
<polygon fill="none" stroke="#000000" points="721.278,-966 569.278,-966 569.278,-930 721.278,-930 721.278,-966"/>
<text text-anchor="middle" x="645.278" y="-945.2" font-family="Courier,monospace" font-size="11.00" fill="#000000">AMQPSocketConnection</text>
</g>
<!-- \\PhpAmqpLib\\Connection\\AbstractConnection -->
<g id="node29" class="node">
<title>\\PhpAmqpLib\\Connection\\AbstractConnection</title>
<polygon fill="none" stroke="#000000" points="415.139,-966 277.139,-966 277.139,-930 415.139,-930 415.139,-966"/>
<text text-anchor="middle" x="346.139" y="-945.2" font-family="Courier,monospace" font-size="11.00" fill="#000000">AbstractConnection</text>
</g>
<!-- \\PhpAmqpLib\\Connection\\AMQPSocketConnection&#45;&gt;\\PhpAmqpLib\\Connection\\AbstractConnection -->
<g id="edge9" class="edge">
<title>\\PhpAmqpLib\\Connection\\AMQPSocketConnection&#45;&gt;\\PhpAmqpLib\\Connection\\AbstractConnection</title>
<path fill="none" stroke="#000000" d="M569.0186,-948C525.0969,-948 469.9699,-948 425.5308,-948"/>
<polygon fill="none" stroke="#000000" points="425.351,-944.5001 415.351,-948 425.351,-951.5001 425.351,-944.5001"/>
</g>
<!-- \\PhpAmqpLib\\Connection\\AMQPStreamConnection -->
<g id="node24" class="node">
<title>\\PhpAmqpLib\\Connection\\AMQPStreamConnection</title>
<polygon fill="none" stroke="#000000" points="721.278,-1047 569.278,-1047 569.278,-1011 721.278,-1011 721.278,-1047"/>
<text text-anchor="middle" x="645.278" y="-1026.2" font-family="Courier,monospace" font-size="11.00" fill="#000000">AMQPStreamConnection</text>
</g>
<!-- \\PhpAmqpLib\\Connection\\AMQPStreamConnection&#45;&gt;\\PhpAmqpLib\\Connection\\AbstractConnection -->
<g id="edge10" class="edge">
<title>\\PhpAmqpLib\\Connection\\AMQPStreamConnection&#45;&gt;\\PhpAmqpLib\\Connection\\AbstractConnection</title>
<path fill="none" stroke="#000000" d="M578.5177,-1010.9228C532.2834,-998.4036 470.6339,-981.7104 422.4522,-968.6639"/>
<polygon fill="none" stroke="#000000" points="423.2624,-965.2573 412.6952,-966.0219 421.4328,-972.014 423.2624,-965.2573"/>
</g>
<!-- \\PhpAmqpLib\\Connection\\AMQPConnection -->
<g id="node25" class="node">
<title>\\PhpAmqpLib\\Connection\\AMQPConnection</title>
<polygon fill="none" stroke="#000000" points="988.778,-1020 877.778,-1020 877.778,-984 988.778,-984 988.778,-1020"/>
<text text-anchor="middle" x="933.278" y="-999.2" font-family="Courier,monospace" font-size="11.00" fill="#000000">AMQPConnection</text>
</g>
<!-- \\PhpAmqpLib\\Connection\\AMQPConnection&#45;&gt;\\PhpAmqpLib\\Connection\\AMQPStreamConnection -->
<g id="edge11" class="edge">
<title>\\PhpAmqpLib\\Connection\\AMQPConnection&#45;&gt;\\PhpAmqpLib\\Connection\\AMQPStreamConnection</title>
<path fill="none" stroke="#000000" d="M877.7487,-1007.2059C836.2411,-1011.0972 778.7217,-1016.4897 731.2837,-1020.937"/>
<polygon fill="none" stroke="#000000" points="730.9529,-1017.4525 721.3233,-1021.8708 731.6064,-1024.422 730.9529,-1017.4525"/>
</g>
<!-- \\PhpAmqpLib\\Connection\\AMQPLazyConnection -->
<g id="node26" class="node">
<title>\\PhpAmqpLib\\Connection\\AMQPLazyConnection</title>
<polygon fill="none" stroke="#000000" points="1002.278,-1128 864.278,-1128 864.278,-1092 1002.278,-1092 1002.278,-1128"/>
<text text-anchor="middle" x="933.278" y="-1107.2" font-family="Courier,monospace" font-size="11.00" fill="#000000">AMQPLazyConnection</text>
</g>
<!-- \\PhpAmqpLib\\Connection\\AMQPLazyConnection&#45;&gt;\\PhpAmqpLib\\Connection\\AMQPStreamConnection -->
<g id="edge12" class="edge">
<title>\\PhpAmqpLib\\Connection\\AMQPLazyConnection&#45;&gt;\\PhpAmqpLib\\Connection\\AMQPStreamConnection</title>
<path fill="none" stroke="#000000" d="M864.0761,-1094.2153C849.5627,-1090.6951 834.3836,-1086.8571 820.278,-1083 783.7285,-1073.0057 743.2844,-1060.6143 710.4922,-1050.2235"/>
<polygon fill="none" stroke="#000000" points="711.1642,-1046.7645 700.5737,-1047.0678 709.0419,-1053.435 711.1642,-1046.7645"/>
</g>
<!-- \\PhpAmqpLib\\Connection\\AMQPSSLConnection -->
<g id="node27" class="node">
<title>\\PhpAmqpLib\\Connection\\AMQPSSLConnection</title>
<polygon fill="none" stroke="#000000" points="998.778,-1074 867.778,-1074 867.778,-1038 998.778,-1038 998.778,-1074"/>
<text text-anchor="middle" x="933.278" y="-1053.2" font-family="Courier,monospace" font-size="11.00" fill="#000000">AMQPSSLConnection</text>
</g>
<!-- \\PhpAmqpLib\\Connection\\AMQPSSLConnection&#45;&gt;\\PhpAmqpLib\\Connection\\AMQPStreamConnection -->
<g id="edge13" class="edge">
<title>\\PhpAmqpLib\\Connection\\AMQPSSLConnection&#45;&gt;\\PhpAmqpLib\\Connection\\AMQPStreamConnection</title>
<path fill="none" stroke="#000000" d="M867.5659,-1049.8395C827.213,-1046.0564 775.0756,-1041.1685 731.4375,-1037.0775"/>
<polygon fill="none" stroke="#000000" points="731.6874,-1033.5856 721.4043,-1036.1368 731.0339,-1040.5551 731.6874,-1033.5856"/>
</g>
<!-- \\PhpAmqpLib\\Connection\\AMQPLazySocketConnection -->
<g id="node28" class="node">
<title>\\PhpAmqpLib\\Connection\\AMQPLazySocketConnection</title>
<polygon fill="none" stroke="#000000" points="1022.778,-966 843.778,-966 843.778,-930 1022.778,-930 1022.778,-966"/>
<text text-anchor="middle" x="933.278" y="-945.2" font-family="Courier,monospace" font-size="11.00" fill="#000000">AMQPLazySocketConnection</text>
</g>
<!-- \\PhpAmqpLib\\Connection\\AMQPLazySocketConnection&#45;&gt;\\PhpAmqpLib\\Connection\\AMQPSocketConnection -->
<g id="edge14" class="edge">
<title>\\PhpAmqpLib\\Connection\\AMQPLazySocketConnection&#45;&gt;\\PhpAmqpLib\\Connection\\AMQPSocketConnection</title>
<path fill="none" stroke="#000000" d="M843.7317,-948C808.1134,-948 767.2826,-948 731.9534,-948"/>
<polygon fill="none" stroke="#000000" points="731.6623,-944.5001 721.6622,-948 731.6622,-951.5001 731.6623,-944.5001"/>
</g>
<!-- \\PhpAmqpLib\\Channel\\AbstractChannel -->
<g id="node47" class="node">
<title>\\PhpAmqpLib\\Channel\\AbstractChannel</title>
<polygon fill="none" stroke="#000000" points="150,-320 32,-320 32,-284 150,-284 150,-320"/>
<text text-anchor="start" x="57" y="-305.2" font-family="Courier,monospace" font-size="11.00" fill="#000000">«abstract»</text>
<text text-anchor="start" x="40" y="-293.2" font-family="Courier,monospace" font-size="11.00" fill="#000000">AbstractChannel</text>
</g>
<!-- \\PhpAmqpLib\\Connection\\AbstractConnection&#45;&gt;\\PhpAmqpLib\\Channel\\AbstractChannel -->
<g id="edge15" class="edge">
<title>\\PhpAmqpLib\\Connection\\AbstractConnection&#45;&gt;\\PhpAmqpLib\\Channel\\AbstractChannel</title>
<path fill="none" stroke="#000000" d="M277.0563,-945.0447C256.9115,-940.8669 236.4556,-932.8598 222,-918 138.2499,-831.9078 101.7648,-439.8772 93.1027,-330.4443"/>
<polygon fill="none" stroke="#000000" points="96.5705,-329.8927 92.3079,-320.1932 89.5914,-330.4339 96.5705,-329.8927"/>
</g>
<!-- \\PhpAmqpLib\\Exception\\AMQPOutOfBoundsException -->
<g id="node30" class="node">
<title>\\PhpAmqpLib\\Exception\\AMQPOutOfBoundsException</title>
<polygon fill="none" stroke="#000000" points="734.778,-886 555.778,-886 555.778,-850 734.778,-850 734.778,-886"/>
<text text-anchor="middle" x="645.278" y="-865.2" font-family="Courier,monospace" font-size="11.00" fill="#000000">AMQPOutOfBoundsException</text>
</g>
<!-- \\PhpAmqpLib\\Exception\\AMQPExceptionInterface -->
<g id="node45" class="node">
<title>\\PhpAmqpLib\\Exception\\AMQPExceptionInterface</title>
<polygon fill="none" stroke="#000000" points="428.639,-670 263.639,-670 263.639,-634 428.639,-634 428.639,-670"/>
<text text-anchor="middle" x="346.139" y="-649.2" font-family="Courier,monospace" font-size="11.00" fill="#000000">AMQPExceptionInterface</text>
</g>
<!-- \\PhpAmqpLib\\Exception\\AMQPOutOfBoundsException&#45;&gt;\\PhpAmqpLib\\Exception\\AMQPExceptionInterface -->
<g id="edge17" class="edge">
<title>\\PhpAmqpLib\\Exception\\AMQPOutOfBoundsException&#45;&gt;\\PhpAmqpLib\\Exception\\AMQPExceptionInterface</title>
<path fill="none" stroke="#000000" stroke-dasharray="1,5" d="M561.4713,-849.9857C554.8065,-847.373 548.3226,-844.394 542.278,-841 466.2838,-798.3306 398.0516,-719.1402 365.7932,-678.1297"/>
<polygon fill="none" stroke="#000000" points="368.5474,-675.9699 359.6474,-670.2217 363.0202,-680.2654 368.5474,-675.9699"/>
</g>
<!-- \\OutOfBoundsException -->
<g id="node49" class="node">
<title>\\OutOfBoundsException</title>
<ellipse fill="none" stroke="#000000" cx="346.139" cy="-234" rx="124.2781" ry="18"/>
<text text-anchor="middle" x="346.139" y="-230.3" font-family="Times,serif" font-size="14.00" fill="#c0c0c0">\OutOfBoundsException</text>
</g>
<!-- \\PhpAmqpLib\\Exception\\AMQPOutOfBoundsException&#45;&gt;\\OutOfBoundsException -->
<g id="edge16" class="edge">
<title>\\PhpAmqpLib\\Exception\\AMQPOutOfBoundsException&#45;&gt;\\OutOfBoundsException</title>
<path fill="none" stroke="#000000" d="M555.6645,-852.3738C550.7146,-849.2037 546.1793,-845.4468 542.278,-841 374.1687,-649.3856 634.4549,-466.9942 470.278,-272 462.8115,-263.132 453.3343,-256.2935 442.9557,-251.027"/>
<polygon fill="none" stroke="#000000" points="444.1832,-247.7404 433.6309,-246.7919 441.2885,-254.1139 444.1832,-247.7404"/>
</g>
<!-- \\PhpAmqpLib\\Exception\\AMQPLogicException -->
<g id="node31" class="node">
<title>\\PhpAmqpLib\\Exception\\AMQPLogicException</title>
<polygon fill="none" stroke="#000000" points="714.278,-832 576.278,-832 576.278,-796 714.278,-796 714.278,-832"/>
<text text-anchor="middle" x="645.278" y="-811.2" font-family="Courier,monospace" font-size="11.00" fill="#000000">AMQPLogicException</text>
</g>
<!-- \\PhpAmqpLib\\Exception\\AMQPLogicException&#45;&gt;\\PhpAmqpLib\\Exception\\AMQPExceptionInterface -->
<g id="edge19" class="edge">
<title>\\PhpAmqpLib\\Exception\\AMQPLogicException&#45;&gt;\\PhpAmqpLib\\Exception\\AMQPExceptionInterface</title>
<path fill="none" stroke="#000000" stroke-dasharray="1,5" d="M576.249,-799.4531C564.665,-796.0141 552.95,-791.8892 542.278,-787 477.6398,-757.3873 411.323,-706.6292 374.7592,-676.505"/>
<polygon fill="none" stroke="#000000" points="376.9141,-673.745 366.9873,-670.0423 372.4384,-679.1272 376.9141,-673.745"/>
</g>
<!-- \\LogicException -->
<g id="node50" class="node">
<title>\\LogicException</title>
<ellipse fill="none" stroke="#000000" cx="346.139" cy="-180" rx="83.3857" ry="18"/>
<text text-anchor="middle" x="346.139" y="-176.3" font-family="Times,serif" font-size="14.00" fill="#c0c0c0">LogicException</text>
</g>
<!-- \\PhpAmqpLib\\Exception\\AMQPLogicException&#45;&gt;\\LogicException -->
<g id="edge18" class="edge">
<title>\\PhpAmqpLib\\Exception\\AMQPLogicException&#45;&gt;\\LogicException</title>
<path fill="none" stroke="#000000" d="M576.2525,-807.9015C563.3601,-803.7135 551.1658,-797.1547 542.278,-787 371.2003,-591.5369 645.442,-398.8097 470.278,-207 461.4482,-197.3312 450.0377,-190.6948 437.7182,-186.2043"/>
<polygon fill="none" stroke="#000000" points="438.738,-182.8561 428.148,-183.1741 436.625,-189.5295 438.738,-182.8561"/>
</g>
<!-- \\PhpAmqpLib\\Exception\\AMQPIOWaitException -->
<g id="node32" class="node">
<title>\\PhpAmqpLib\\Exception\\AMQPIOWaitException</title>
<polygon fill="none" stroke="#000000" points="1005.778,-616 860.778,-616 860.778,-580 1005.778,-580 1005.778,-616"/>
<text text-anchor="middle" x="933.278" y="-595.2" font-family="Courier,monospace" font-size="11.00" fill="#000000">AMQPIOWaitException</text>
</g>
<!-- \\PhpAmqpLib\\Exception\\AMQPRuntimeException -->
<g id="node40" class="node">
<title>\\PhpAmqpLib\\Exception\\AMQPRuntimeException</title>
<polygon fill="none" stroke="#000000" points="721.278,-616 569.278,-616 569.278,-580 721.278,-580 721.278,-616"/>
<text text-anchor="middle" x="645.278" y="-595.2" font-family="Courier,monospace" font-size="11.00" fill="#000000">AMQPRuntimeException</text>
</g>
<!-- \\PhpAmqpLib\\Exception\\AMQPIOWaitException&#45;&gt;\\PhpAmqpLib\\Exception\\AMQPRuntimeException -->
<g id="edge20" class="edge">
<title>\\PhpAmqpLib\\Exception\\AMQPIOWaitException&#45;&gt;\\PhpAmqpLib\\Exception\\AMQPRuntimeException</title>
<path fill="none" stroke="#000000" d="M860.6034,-598C821.3479,-598 772.6315,-598 731.4707,-598"/>
<polygon fill="none" stroke="#000000" points="731.453,-594.5001 721.4529,-598 731.4529,-601.5001 731.453,-594.5001"/>
</g>
<!-- \\PhpAmqpLib\\Exception\\AMQPProtocolChannelException -->
<g id="node33" class="node">
<title>\\PhpAmqpLib\\Exception\\AMQPProtocolChannelException</title>
<polygon fill="none" stroke="#000000" points="1036.278,-751 830.278,-751 830.278,-715 1036.278,-715 1036.278,-751"/>
<text text-anchor="middle" x="933.278" y="-730.2" font-family="Courier,monospace" font-size="11.00" fill="#000000">AMQPProtocolChannelException</text>
</g>
<!-- \\PhpAmqpLib\\Exception\\AMQPProtocolException -->
<g id="node38" class="node">
<title>\\PhpAmqpLib\\Exception\\AMQPProtocolException</title>
<polygon fill="none" stroke="#000000" points="724.278,-724 566.278,-724 566.278,-688 724.278,-688 724.278,-724"/>
<text text-anchor="middle" x="645.278" y="-703.2" font-family="Courier,monospace" font-size="11.00" fill="#000000">AMQPProtocolException</text>
</g>
<!-- \\PhpAmqpLib\\Exception\\AMQPProtocolChannelException&#45;&gt;\\PhpAmqpLib\\Exception\\AMQPProtocolException -->
<g id="edge21" class="edge">
<title>\\PhpAmqpLib\\Exception\\AMQPProtocolChannelException&#45;&gt;\\PhpAmqpLib\\Exception\\AMQPProtocolException</title>
<path fill="none" stroke="#000000" d="M830.1168,-723.3286C798.9395,-720.4058 764.9778,-717.2219 734.7704,-714.3899"/>
<polygon fill="none" stroke="#000000" points="734.9625,-710.8927 724.6795,-713.4439 734.3091,-717.8621 734.9625,-710.8927"/>
</g>
<!-- \\PhpAmqpLib\\Exception\\AMQPException -->
<g id="node34" class="node">
<title>\\PhpAmqpLib\\Exception\\AMQPException</title>
<polygon fill="none" stroke="#000000" points="697.278,-562 593.278,-562 593.278,-526 697.278,-526 697.278,-562"/>
<text text-anchor="middle" x="645.278" y="-541.2" font-family="Courier,monospace" font-size="11.00" fill="#000000">AMQPException</text>
</g>
<!-- \\Exception -->
<g id="node51" class="node">
<title>\\Exception</title>
<ellipse fill="none" stroke="#000000" cx="346.139" cy="-126" rx="50.8918" ry="18"/>
<text text-anchor="middle" x="346.139" y="-122.3" font-family="Times,serif" font-size="14.00" fill="#c0c0c0">xception</text>
</g>
<!-- \\PhpAmqpLib\\Exception\\AMQPException&#45;&gt;\\Exception -->
<g id="edge22" class="edge">
<title>\\PhpAmqpLib\\Exception\\AMQPException&#45;&gt;\\Exception</title>
<path fill="none" stroke="#000000" d="M593.1288,-541.5075C574.7329,-538.0168 555.3877,-530.936 542.278,-517 429.2829,-396.8827 585.7825,-270.7062 470.278,-153 453.7937,-136.2015 429.4828,-128.7161 406.7341,-125.6985"/>
<polygon fill="none" stroke="#000000" points="407.0825,-122.2159 396.768,-124.6367 406.3409,-129.1765 407.0825,-122.2159"/>
</g>
<!-- \\PhpAmqpLib\\Exception\\AMQPIOException -->
<g id="node35" class="node">
<title>\\PhpAmqpLib\\Exception\\AMQPIOException</title>
<polygon fill="none" stroke="#000000" points="704.278,-778 586.278,-778 586.278,-742 704.278,-742 704.278,-778"/>
<text text-anchor="middle" x="645.278" y="-757.2" font-family="Courier,monospace" font-size="11.00" fill="#000000">AMQPIOException</text>
</g>
<!-- \\PhpAmqpLib\\Exception\\AMQPIOException&#45;&gt;\\PhpAmqpLib\\Exception\\AMQPExceptionInterface -->
<g id="edge24" class="edge">
<title>\\PhpAmqpLib\\Exception\\AMQPIOException&#45;&gt;\\PhpAmqpLib\\Exception\\AMQPExceptionInterface</title>
<path fill="none" stroke="#000000" stroke-dasharray="1,5" d="M586.0462,-745.9384C571.6132,-742.1106 556.2974,-737.7083 542.278,-733 491.0864,-715.8079 434.2147,-691.7484 394.95,-674.3218"/>
<polygon fill="none" stroke="#000000" points="395.9193,-670.9217 385.361,-670.0424 393.0665,-677.314 395.9193,-670.9217"/>
</g>
<!-- \\PhpAmqpLib\\Exception\\AMQPIOException&#45;&gt;\\Exception -->
<g id="edge23" class="edge">
<title>\\PhpAmqpLib\\Exception\\AMQPIOException&#45;&gt;\\Exception</title>
<path fill="none" stroke="#000000" d="M586.1463,-756.6487C569.7532,-752.8069 553.4182,-745.7282 542.278,-733 371.2003,-537.5369 645.442,-344.8097 470.278,-153 454.2775,-135.479 429.8023,-127.9158 406.8008,-125.0352"/>
<polygon fill="none" stroke="#000000" points="407.0122,-121.5393 396.7185,-124.047 406.3293,-128.5059 407.0122,-121.5393"/>
</g>
<!-- \\PhpAmqpLib\\Exception\\AMQPTimeoutException -->
<g id="node36" class="node">
<title>\\PhpAmqpLib\\Exception\\AMQPTimeoutException</title>
<polygon fill="none" stroke="#000000" points="721.278,-454 569.278,-454 569.278,-418 721.278,-418 721.278,-454"/>
<text text-anchor="middle" x="645.278" y="-433.2" font-family="Courier,monospace" font-size="11.00" fill="#000000">AMQPTimeoutException</text>
</g>
<!-- \\PhpAmqpLib\\Exception\\AMQPTimeoutException&#45;&gt;\\PhpAmqpLib\\Exception\\AMQPExceptionInterface -->
<g id="edge26" class="edge">
<title>\\PhpAmqpLib\\Exception\\AMQPTimeoutException&#45;&gt;\\PhpAmqpLib\\Exception\\AMQPExceptionInterface</title>
<path fill="none" stroke="#000000" stroke-dasharray="1,5" d="M569.2686,-451.1449C559.8864,-454.3853 550.6599,-458.2937 542.278,-463 466.2838,-505.6694 398.0516,-584.8598 365.7932,-625.8703"/>
<polygon fill="none" stroke="#000000" points="363.0202,-623.7346 359.6474,-633.7783 368.5474,-628.0301 363.0202,-623.7346"/>
</g>
<!-- \\RuntimeException -->
<g id="node52" class="node">
<title>\\RuntimeException</title>
<ellipse fill="none" stroke="#000000" cx="346.139" cy="-72" rx="100.1823" ry="18"/>
<text text-anchor="middle" x="346.139" y="-68.3" font-family="Times,serif" font-size="14.00" fill="#c0c0c0">\RuntimeException</text>
</g>
<!-- \\PhpAmqpLib\\Exception\\AMQPTimeoutException&#45;&gt;\\RuntimeException -->
<g id="edge25" class="edge">
<title>\\PhpAmqpLib\\Exception\\AMQPTimeoutException&#45;&gt;\\RuntimeException</title>
<path fill="none" stroke="#000000" d="M569.1565,-426.326C559.1265,-422.2776 549.7521,-416.6875 542.278,-409 443.6791,-307.5851 570.9949,-198.3117 470.278,-99 463.5886,-92.404 455.6887,-87.2555 447.1663,-83.2553"/>
<polygon fill="none" stroke="#000000" points="448.2811,-79.9292 437.702,-79.3513 445.6118,-86.4002 448.2811,-79.9292"/>
</g>
<!-- \\PhpAmqpLib\\Exception\\AMQPInvalidArgumentException -->
<g id="node37" class="node">
<title>\\PhpAmqpLib\\Exception\\AMQPInvalidArgumentException</title>
<polygon fill="none" stroke="#000000" points="748.278,-508 542.278,-508 542.278,-472 748.278,-472 748.278,-508"/>
<text text-anchor="middle" x="645.278" y="-487.2" font-family="Courier,monospace" font-size="11.00" fill="#000000">AMQPInvalidArgumentException</text>
</g>
<!-- \\PhpAmqpLib\\Exception\\AMQPInvalidArgumentException&#45;&gt;\\PhpAmqpLib\\Exception\\AMQPExceptionInterface -->
<g id="edge28" class="edge">
<title>\\PhpAmqpLib\\Exception\\AMQPInvalidArgumentException&#45;&gt;\\PhpAmqpLib\\Exception\\AMQPExceptionInterface</title>
<path fill="none" stroke="#000000" stroke-dasharray="1,5" d="M565.3012,-508.0029C557.389,-510.6601 549.5887,-513.6507 542.278,-517 477.6398,-546.6127 411.323,-597.3708 374.7592,-627.495"/>
<polygon fill="none" stroke="#000000" points="372.4384,-624.8728 366.9873,-633.9577 376.9141,-630.255 372.4384,-624.8728"/>
</g>
<!-- \\PhpAmqpLib\\Exception\\AMQPInvalidArgumentException&#45;&gt;\\RuntimeException -->
<g id="edge27" class="edge">
<title>\\PhpAmqpLib\\Exception\\AMQPInvalidArgumentException&#45;&gt;\\RuntimeException</title>
<path fill="none" stroke="#000000" d="M552.7679,-471.9447C548.975,-469.3324 545.4446,-466.3662 542.278,-463 429.2829,-342.8827 585.7825,-216.7062 470.278,-99 463.7549,-92.3526 456.0062,-87.1635 447.6137,-83.1325"/>
<polygon fill="none" stroke="#000000" points="448.8561,-79.858 438.2818,-79.1988 446.137,-86.3083 448.8561,-79.858"/>
</g>
<!-- \\PhpAmqpLib\\Exception\\AMQPProtocolException&#45;&gt;\\PhpAmqpLib\\Exception\\AMQPExceptionInterface -->
<g id="edge30" class="edge">
<title>\\PhpAmqpLib\\Exception\\AMQPProtocolException&#45;&gt;\\PhpAmqpLib\\Exception\\AMQPExceptionInterface</title>
<path fill="none" stroke="#000000" stroke-dasharray="1,5" d="M565.8996,-691.6708C526.803,-684.6131 479.4314,-676.0617 438.6952,-668.7081"/>
<polygon fill="none" stroke="#000000" points="439.2252,-665.2473 428.7625,-666.915 437.9817,-672.1359 439.2252,-665.2473"/>
</g>
<!-- \\PhpAmqpLib\\Exception\\AMQPProtocolException&#45;&gt;\\Exception -->
<g id="edge29" class="edge">
<title>\\PhpAmqpLib\\Exception\\AMQPProtocolException&#45;&gt;\\Exception</title>
<path fill="none" stroke="#000000" d="M566.2074,-695.9377C557.1549,-691.8881 548.8382,-686.4012 542.278,-679 385.7649,-502.4222 630.4821,-326.2359 470.278,-153 454.168,-135.5796 429.6754,-128.0324 406.6905,-125.1367"/>
<polygon fill="none" stroke="#000000" points="406.9136,-121.6417 396.6175,-124.1398 406.2241,-128.6077 406.9136,-121.6417"/>
</g>
<!-- \\PhpAmqpLib\\Exception\\AMQPProtocolConnectionException -->
<g id="node39" class="node">
<title>\\PhpAmqpLib\\Exception\\AMQPProtocolConnectionException</title>
<polygon fill="none" stroke="#000000" points="1046.278,-697 820.278,-697 820.278,-661 1046.278,-661 1046.278,-697"/>
<text text-anchor="middle" x="933.278" y="-676.2" font-family="Courier,monospace" font-size="11.00" fill="#000000">AMQPProtocolConnectionException</text>
</g>
<!-- \\PhpAmqpLib\\Exception\\AMQPProtocolConnectionException&#45;&gt;\\PhpAmqpLib\\Exception\\AMQPProtocolException -->
<g id="edge31" class="edge">
<title>\\PhpAmqpLib\\Exception\\AMQPProtocolConnectionException&#45;&gt;\\PhpAmqpLib\\Exception\\AMQPProtocolException</title>
<path fill="none" stroke="#000000" d="M819.8662,-689.6324C791.532,-692.2887 761.5413,-695.1003 734.5611,-697.6297"/>
<polygon fill="none" stroke="#000000" points="734.0074,-694.1662 724.3778,-698.5844 734.6608,-701.1356 734.0074,-694.1662"/>
</g>
<!-- \\PhpAmqpLib\\Exception\\AMQPRuntimeException&#45;&gt;\\PhpAmqpLib\\Exception\\AMQPExceptionInterface -->
<g id="edge33" class="edge">
<title>\\PhpAmqpLib\\Exception\\AMQPRuntimeException&#45;&gt;\\PhpAmqpLib\\Exception\\AMQPExceptionInterface</title>
<path fill="none" stroke="#000000" stroke-dasharray="1,5" d="M569.0186,-611.7662C529.3559,-618.926 480.5558,-627.7353 438.74,-635.2838"/>
<polygon fill="none" stroke="#000000" points="438.0452,-631.8526 428.826,-637.0735 439.2888,-638.7413 438.0452,-631.8526"/>
</g>
<!-- \\PhpAmqpLib\\Exception\\AMQPRuntimeException&#45;&gt;\\RuntimeException -->
<g id="edge32" class="edge">
<title>\\PhpAmqpLib\\Exception\\AMQPRuntimeException&#45;&gt;\\RuntimeException</title>
<path fill="none" stroke="#000000" d="M569.1323,-589.0425C558.9794,-584.9103 549.5749,-579.1063 542.278,-571 400.307,-413.282 615.5453,-253.6871 470.278,-99 463.9578,-92.27 456.3854,-87.019 448.1394,-82.9433"/>
<polygon fill="none" stroke="#000000" points="449.522,-79.728 438.9545,-78.9676 446.7413,-86.152 449.522,-79.728"/>
</g>
<!-- \\PhpAmqpLib\\Exception\\AMQPConnectionException -->
<g id="node41" class="node">
<title>\\PhpAmqpLib\\Exception\\AMQPConnectionException</title>
<polygon fill="none" stroke="#000000" points="1019.278,-562 847.278,-562 847.278,-526 1019.278,-526 1019.278,-562"/>
<text text-anchor="middle" x="933.278" y="-541.2" font-family="Courier,monospace" font-size="11.00" fill="#000000">AMQPConnectionException</text>
</g>
<!-- \\PhpAmqpLib\\Exception\\AMQPConnectionException&#45;&gt;\\PhpAmqpLib\\Exception\\AMQPException -->
<g id="edge34" class="edge">
<title>\\PhpAmqpLib\\Exception\\AMQPConnectionException&#45;&gt;\\PhpAmqpLib\\Exception\\AMQPException</title>
<path fill="none" stroke="#000000" d="M847.2586,-544C802.3352,-544 748.374,-544 707.5318,-544"/>
<polygon fill="none" stroke="#000000" points="707.4444,-540.5001 697.4443,-544 707.4443,-547.5001 707.4444,-540.5001"/>
</g>
<!-- \\PhpAmqpLib\\Exception\\AMQPChannelException -->
<g id="node42" class="node">
<title>\\PhpAmqpLib\\Exception\\AMQPChannelException</title>
<polygon fill="none" stroke="#000000" points="1009.278,-508 857.278,-508 857.278,-472 1009.278,-472 1009.278,-508"/>
<text text-anchor="middle" x="933.278" y="-487.2" font-family="Courier,monospace" font-size="11.00" fill="#000000">AMQPChannelException</text>
</g>
<!-- \\PhpAmqpLib\\Exception\\AMQPChannelException&#45;&gt;\\PhpAmqpLib\\Exception\\AMQPException -->
<g id="edge35" class="edge">
<title>\\PhpAmqpLib\\Exception\\AMQPChannelException&#45;&gt;\\PhpAmqpLib\\Exception\\AMQPException</title>
<path fill="none" stroke="#000000" d="M857.2326,-504.2585C810.5407,-513.0132 751.4808,-524.087 707.5706,-532.3201"/>
<polygon fill="none" stroke="#000000" points="706.7819,-528.9069 697.5983,-534.1899 708.072,-535.787 706.7819,-528.9069"/>
</g>
<!-- \\PhpAmqpLib\\Exception\\AMQPBasicCancelException -->
<g id="node43" class="node">
<title>\\PhpAmqpLib\\Exception\\AMQPBasicCancelException</title>
<polygon fill="none" stroke="#000000" points="734.778,-670 555.778,-670 555.778,-634 734.778,-634 734.778,-670"/>
<text text-anchor="middle" x="645.278" y="-649.2" font-family="Courier,monospace" font-size="11.00" fill="#000000">AMQPBasicCancelException</text>
</g>
<!-- \\PhpAmqpLib\\Exception\\AMQPBasicCancelException&#45;&gt;\\PhpAmqpLib\\Exception\\AMQPExceptionInterface -->
<g id="edge37" class="edge">
<title>\\PhpAmqpLib\\Exception\\AMQPBasicCancelException&#45;&gt;\\PhpAmqpLib\\Exception\\AMQPExceptionInterface</title>
<path fill="none" stroke="#000000" stroke-dasharray="1,5" d="M555.5264,-652C518.7166,-652 476.1197,-652 438.9948,-652"/>
<polygon fill="none" stroke="#000000" points="438.6781,-648.5001 428.6781,-652 438.6781,-655.5001 438.6781,-648.5001"/>
</g>
<!-- \\PhpAmqpLib\\Exception\\AMQPBasicCancelException&#45;&gt;\\Exception -->
<g id="edge36" class="edge">
<title>\\PhpAmqpLib\\Exception\\AMQPBasicCancelException&#45;&gt;\\Exception</title>
<path fill="none" stroke="#000000" d="M555.3283,-635.9624C550.5278,-632.8829 546.112,-629.2593 542.278,-625 400.307,-467.282 615.5453,-307.6871 470.278,-153 454.1007,-135.7737 429.7194,-128.2374 406.8352,-125.2974"/>
<polygon fill="none" stroke="#000000" points="407.1084,-121.8072 396.8057,-124.2776 406.4003,-128.7713 407.1084,-121.8072"/>
</g>
<!-- \\PhpAmqpLib\\Exception\\AMQPOutOfRangeException -->
<g id="node44" class="node">
<title>\\PhpAmqpLib\\Exception\\AMQPOutOfRangeException</title>
<polygon fill="none" stroke="#000000" points="731.278,-400 559.278,-400 559.278,-364 731.278,-364 731.278,-400"/>
<text text-anchor="middle" x="645.278" y="-379.2" font-family="Courier,monospace" font-size="11.00" fill="#000000">AMQPOutOfRangeException</text>
</g>
<!-- \\PhpAmqpLib\\Exception\\AMQPOutOfRangeException&#45;&gt;\\PhpAmqpLib\\Exception\\AMQPExceptionInterface -->
<g id="edge39" class="edge">
<title>\\PhpAmqpLib\\Exception\\AMQPOutOfRangeException&#45;&gt;\\PhpAmqpLib\\Exception\\AMQPExceptionInterface</title>
<path fill="none" stroke="#000000" stroke-dasharray="1,5" d="M559.1529,-399.9977C553.2486,-402.6042 547.5558,-405.5869 542.278,-409 454.8151,-465.5604 388.1632,-574.0838 360.3451,-624.7233"/>
<polygon fill="none" stroke="#000000" points="357.1344,-623.3027 355.4553,-633.7636 363.2914,-626.633 357.1344,-623.3027"/>
</g>
<!-- \\OutOfRangeException -->
<g id="node53" class="node">
<title>\\OutOfRangeException</title>
<ellipse fill="none" stroke="#000000" cx="346.139" cy="-18" rx="118.0794" ry="18"/>
<text text-anchor="middle" x="346.139" y="-14.3" font-family="Times,serif" font-size="14.00" fill="#c0c0c0">\OutOfRangeException</text>
</g>
<!-- \\PhpAmqpLib\\Exception\\AMQPOutOfRangeException&#45;&gt;\\OutOfRangeException -->
<g id="edge38" class="edge">
<title>\\PhpAmqpLib\\Exception\\AMQPOutOfRangeException&#45;&gt;\\OutOfRangeException</title>
<path fill="none" stroke="#000000" d="M641.5646,-363.8914C628.8937,-306.9577 581.809,-130.3156 470.278,-45 463.9961,-40.1947 457.0383,-36.2058 449.7173,-32.8989"/>
<polygon fill="none" stroke="#000000" points="450.8554,-29.5836 440.2732,-29.0648 448.2222,-36.0694 450.8554,-29.5836"/>
</g>
<!-- \\PhpAmqpLib\\Channel\\AMQPChannel -->
<g id="node46" class="node">
<title>\\PhpAmqpLib\\Channel\\AMQPChannel</title>
<polygon fill="none" stroke="#000000" points="391.639,-320 300.639,-320 300.639,-284 391.639,-284 391.639,-320"/>
<text text-anchor="middle" x="346.139" y="-299.2" font-family="Courier,monospace" font-size="11.00" fill="#000000">AMQPChannel</text>
</g>
<!-- \\PhpAmqpLib\\Channel\\AMQPChannel&#45;&gt;\\PhpAmqpLib\\Channel\\AbstractChannel -->
<g id="edge40" class="edge">
<title>\\PhpAmqpLib\\Channel\\AMQPChannel&#45;&gt;\\PhpAmqpLib\\Channel\\AbstractChannel</title>
<path fill="none" stroke="#000000" d="M300.5252,-302C261.5633,-302 204.9139,-302 160.3401,-302"/>
<polygon fill="none" stroke="#000000" points="160.1578,-298.5001 150.1577,-302 160.1577,-305.5001 160.1578,-298.5001"/>
</g>
</g>
</svg>
